# xmcd
#
# Track frame offsets:
#	150
#	11700
#	23025
#	36489
#	48734
#	58091
#	70334
#	82089
#	95440
#	107380
#	117071
#	128844
#	139644
#	150164
#	160356
#	171379
#	182414
#
# Disc length: 2551 seconds
#
# Revision: 1
# Processed by: cddbd v1.5.1PL0 Copyright (c) Steve Scherf et al.
# Submitted via: CDex 1.50Beta5
#
DISCID=df09f511
DTITLE=Various Artist - 写借宍識柴酌磁柴鴫失
DYEAR=1900
DGENRE=軸爵実射酌鹿鴫
TTITLE0=柴紗磁写爵失漆
TTITLE1=悉爵柴酌邪磁捨酌杓識失
TTITLE2=杓射酌爵磁宍耳借竺紗漆酌
TTITLE3=湿酌鹿借竺磁杓写酌鴫篠
TTITLE4=雫偲酌耳磁煮鴫捨耳鴫
TTITLE5=者借勺磁漆柴借鴫捨釈
TTITLE6=湿酌式鴫湿酌磁勺鴫叱漆
TTITLE7=宍耳舎芝磁邪軸実酌鴫
TTITLE8=捨酌邪識柴酌磁射釈識柴
TTITLE9=湿酌式偲酌耳鴫磁捨辞漆実鴫
TTITLE10=湿酌式屡鴫磁偲酌耳識捨釈
TTITLE11=者邪屡鴫磁失酌借捨耳漆
TTITLE12=煮軸嫉勺磁実酌失酌邪漆痔失酌宍耳縞漆磁写釈勺柴杓宍
TTITLE13=屡室鴫勺磁執識柴酌煮爵
TTITLE14=失借爵柴磁軸鴫漆柴宍識柴酌
TTITLE15=者失酌磁邪軸竺爵
TTITLE16=嫉射酌爵磁室漆芝鴫
EXTD=
EXTT0=
EXTT1=
EXTT2=
EXTT3=
EXTT4=
EXTT5=
EXTT6=
EXTT7=
EXTT8=
EXTT9=
EXTT10=
EXTT11=
EXTT12=
EXTT13=
EXTT14=
EXTT15=
EXTT16=
PLAYORDER=
